<svg width="2048" height="2048" viewBox="0 0 2048 2048" fill="none" xmlns="http://www.w3.org/2000/svg">
<path d="M1129.61 986.97C1126.8 997.1 1124.22 1004.44 1124.61 1019.8C1125.45 1051.52 1137.3 1080.24 1148.7 1100.58L1333.35 1285.23H736.789L904.699 1096.86C906.929 1094.36 908.769 1091.54 910.179 1088.49C918.729 1070.01 926.709 1045.34 927.379 1019.79C927.839 1002.42 924.459 995.29 921.259 982.81L1129.61 986.97Z" fill="#EDC9A6"/>
<path d="M1522.68 1598.19H525.319C525.199 1558.23 525.549 1364.42 562.469 1245.4C571.549 1216.18 582.039 1193.97 595.499 1173.63C603.049 1162.21 636.149 1114.18 700.769 1081.33C760.839 1050.79 816.469 1049.46 843.199 1050.55L899.289 1100.58L900.459 1101.62L1024.01 1211.76L1148.72 1100.57H1148.73L1204.82 1050.54C1231.54 1049.44 1287.18 1050.78 1347.24 1081.32C1411.87 1114.17 1444.95 1162.2 1452.52 1173.62C1465.97 1193.96 1476.45 1216.17 1485.53 1245.39C1522.45 1364.42 1522.8 1558.23 1522.68 1598.19Z" fill="#65803D"/>
<path d="M748.04 1365.74V1598.2H678V1365.74C678 1346.4 693.68 1330.72 713.02 1330.72C732.36 1330.71 748.04 1346.4 748.04 1365.74ZM1370 1365.74V1598.2H1299.96V1365.74C1299.96 1346.4 1315.64 1330.72 1334.98 1330.72C1354.34 1330.71 1370 1346.4 1370 1365.74Z" fill="#547720"/>
<path d="M1248.77 700.35C1318.95 722.91 1282.71 840.62 1228.59 849.73C1222.6 877.85 1208.91 925.38 1175.5 964.93C1156.79 987.07 1138.73 999.77 1134.22 1002.87C1124.24 1009.73 1102.91 1024.11 1071.27 1031.58C1062.88 1033.56 1030.46 1040.56 989.738 1031.58C981.838 1029.84 944.408 1021.05 907.178 990.56C897.678 982.78 862.278 952.36 843.188 899.29C837.008 882.1 833.258 861.62 831.838 851.09C776.478 835.02 740.458 753.02 800.888 700.26L814.878 553.33L1033.63 499.33C1033.63 499.33 1154.91 529.98 1157.1 532.9C1159.29 535.82 1248.77 700.35 1248.77 700.35Z" fill="#F8D3B3"/>
<path d="M1083.46 577.17C1078.8 584.84 1070.77 595.65 1057.66 603.83C1046.47 610.81 1035.16 613.65 1024.19 614.72C1012.64 615.85 1001 614.79 989.649 612.33C978.589 609.94 956.159 607.27 915.219 610.1C891.429 611.74 866.019 613.04 844.539 624.49C817.149 639.09 807.439 669.4 802.209 697.94C801.999 699.09 801.329 700.58 800.189 700.33C799.709 700.22 799.359 699.81 799.059 699.41C790.749 688.38 788.889 670.51 787.429 657.27C782.789 615.08 783.269 581.65 787.249 572.16C789.659 566.43 801.849 538.41 830.589 510.63C877.059 465.72 953.599 442.2 992.539 434.12C1024.07 427.57 1057.41 424.25 1089.99 426.52C1108.15 427.78 1127.17 430.1 1144.83 434.57C1159.34 438.24 1173.72 445.2 1182.44 457.37C1191.83 470.48 1194.1 487.04 1205.34 499.05C1217.61 512.16 1234.34 519.98 1246.89 532.78C1263.68 549.9 1280.39 576.84 1282.81 600.99C1284.99 622.75 1275.45 643.29 1264.47 661.42C1262.44 664.77 1250.74 702.44 1248.76 700.36C1244.22 695.57 1186.81 680.14 1141.24 624.35C1130.45 611.14 1125.69 605.41 1121.63 601.45C1118.92 598.8 1110.56 590.88 1098.24 582.31C1094.26 579.52 1085.75 573.3 1083.46 577.17Z" fill="#A95521"/>
<path d="M1313.22 1135H735C712.91 1135 695 1152.91 695 1175V1549.3H1353.22V1175C1353.22 1152.91 1335.31 1135 1313.22 1135Z" fill="#33444D"/>
<path d="M1328.36 1598.19H719.64C677.03 1598.19 642.5 1563.65 642.5 1521.05V1509.75H1405.5V1521.05C1405.5 1563.66 1370.96 1598.19 1328.36 1598.19Z" fill="#465A65"/>
<path d="M950.3 1401C947.67 1401 945.01 1400.17 942.75 1398.44L873.89 1345.85C870.81 1343.5 869 1339.84 869 1335.96C869 1332.08 870.81 1328.42 873.89 1326.07L942.75 1273.48C948.21 1269.31 956.02 1270.35 960.2 1275.82C964.37 1281.28 963.33 1289.09 957.86 1293.27L901.95 1335.97L957.86 1378.67C963.32 1382.84 964.37 1390.65 960.2 1396.12C957.75 1399.32 954.04 1401 950.3 1401ZM1097.7 1401C1093.95 1401 1090.25 1399.31 1087.8 1396.11C1083.63 1390.65 1084.67 1382.84 1090.14 1378.66L1146.05 1335.96L1090.14 1293.26C1084.68 1289.09 1083.63 1281.28 1087.8 1275.81C1091.97 1270.35 1099.78 1269.3 1105.25 1273.47L1174.11 1326.06C1177.19 1328.41 1179 1332.07 1179 1335.95C1179 1339.83 1177.19 1343.49 1174.11 1345.84L1105.25 1398.43C1103 1400.17 1100.34 1401 1097.7 1401Z" fill="white"/>
<path d="M1001.51 1428.93C1000.4 1428.93 999.269 1428.78 998.149 1428.47C991.529 1426.62 987.659 1419.75 989.509 1413.13L1034.51 1252.1C1036.36 1245.48 1043.23 1241.61 1049.85 1243.46C1056.47 1245.31 1060.34 1252.18 1058.49 1258.8L1013.49 1419.83C1011.95 1425.33 1006.95 1428.93 1001.51 1428.93Z" fill="white"/>
<path d="M1768 1622.19H280C266.75 1622.19 256 1611.44 256 1598.19C256 1584.94 266.75 1574.19 280 1574.19H1768C1781.25 1574.19 1792 1584.94 1792 1598.19C1792 1611.44 1781.25 1622.19 1768 1622.19Z" fill="#FDF3D3"/>
</svg>
